Coordinates
version=1
nRows=9
nColumns=63
inDegrees=yes

Units are S.I. units (second, meters, Newtons, ...)
If the header above contains a line with 'inDegrees', this indicates whether rotational values are in degrees (yes) or radians (no).

endheader
time	pelvis_tilt	pelvis_list	pelvis_rotation	pelvis_tx	pelvis_ty	pelvis_tz	hip_flexion_r	hip_adduction_r	hip_rotation_r	knee_angle_r	knee_angle_r_beta	ankle_angle_r	subtalar_angle_r	mtp_angle_r	hip_flexion_l	hip_adduction_l	hip_rotation_l	knee_angle_l	knee_angle_l_beta	ankle_angle_l	subtalar_angle_l	mtp_angle_l	L5_S1_Flex_Ext	L5_S1_Lat_Bending	L5_S1_axial_rotation	L4_L5_Flex_Ext	L4_L5_Lat_Bending	L4_L5_axial_rotation	L3_L4_Flex_Ext	L3_L4_Lat_Bending	L3_L4_axial_rotation	L2_L3_Flex_Ext	L2_L3_Lat_Bending	L2_L3_axial_rotation	L1_L2_Flex_Ext	L1_L2_Lat_Bending	L1_L2_axial_rotation	L1_T12_Flex_Ext	L1_T12_Lat_Bending	L1_T12_axial_rotation	Abs_r3	Abs_r2	Abs_r1	Abs_t1	Abs_t2	neck_flexion	neck_bending	neck_rotation	arm_flex_r	arm_add_r	arm_rot_r	elbow_flex_r	pro_sup_r	wrist_flex_r	wrist_dev_r	arm_flex_l	arm_add_l	arm_rot_l	elbow_flex_l	pro_sup_l	wrist_flex_l	wrist_dev_l
      0.00000000	      6.54312783	     -3.61759196	     90.20258987	      0.45538098	      0.77982782	      0.65355614	      0.91888355	      3.04069122	      8.77080021	      0.54872007	      0.00957697	     24.56965354	     -9.92734472	      0.00000000	      3.56635219	     -2.46998980	     -0.43123995	      6.31619881	      0.11023847	     31.84998556	      5.47014998	      0.00000000	      0.37788970	      0.13705534	      0.64760248	      0.70177896	      0.18228361	      0.68807764	      0.62083499	      0.33323636	      0.68807764	      0.43189014	      0.33323636	      0.56665217	      0.35090838	      0.27948326	      0.52617702	      0.21592618	      0.21229873	      0.48570186	      2.69922835	      1.55039747	      3.60177073	      0.00000000	      0.00000000	     27.36754471	     -4.65147002	    -14.95436495	      8.65072975	    -11.19679873	     66.98637079	     42.60758190	     59.60097310	      7.28113241	      3.76376729	      8.11143239	     -7.57092632	     58.02102374	     46.59910921	     62.88379015	     -0.38022656	     14.47622919
      0.01886792	      6.67852063	     -3.37774367	     90.91351258	      0.45495611	      0.78060626	      0.65221705	      0.38555091	      3.30575287	     10.80030211	      0.27839770	      0.00485896	     22.01851289	    -15.44249775	      0.00000000	      3.59864670	     -2.59752643	      0.57138153	      6.88591836	      0.12018195	     32.24794720	      5.75819600	      0.00000000	      0.33838157	      0.13368035	      0.49762573	      0.62840841	      0.17779487	      0.52872734	      0.55592708	      0.32503040	      0.52872734	      0.38673629	      0.32503040	      0.43542251	      0.31422112	      0.27260097	      0.40432091	      0.19335123	      0.20707086	      0.37321930	      2.41702571	      1.51221885	      2.76764502	      0.00000000	      0.00000000	     27.99367342	     -4.02830490	    -14.48837233	      8.51427526	    -11.11338222	     64.85419418	     42.85432819	     76.74141953	      4.16330372	      1.04270500	      8.10678396	     -7.37838027	     56.59046649	     46.56891203	     63.62492506	      0.86436468	     15.56249946
      0.03773585	      6.95187984	     -3.24465921	     91.42814476	      0.45444828	      0.78120986	      0.65125058	      0.23685589	      3.67836954	     10.00545856	      0.28791274	      0.00502503	     21.29572626	    -16.33682779	      0.00000000	      3.82446448	     -2.84653950	      1.61175843	      7.65052707	      0.13352689	     32.40604707	      5.20438668	      0.00000000	      0.32259271	      0.15914122	      0.35681897	      0.59908693	      0.21165782	      0.37912015	      0.52998757	      0.38693596	      0.37912015	      0.36869121	      0.38693596	      0.31221660	      0.29955959	      0.32452077	      0.28991541	      0.18432948	      0.24650975	      0.26761423	      2.30424749	      1.80023727	      1.98452006	      0.00000000	      0.00000000	     27.97752770	     -3.35890343	    -13.73025638	      8.91586500	    -11.20183694	     65.61525789	     43.03479433	     81.74482481	      1.21642397	      0.39596778	      8.00689909	     -7.22695239	     55.81069144	     46.47240352	     63.36165198	      1.39567043	     15.75734764
      0.05660377	      7.29464796	     -3.11355462	     91.87182961	      0.45381465	      0.78170464	      0.65037539	      0.16858908	      4.09134077	      9.00281134	      0.28675173	      0.00500476	     21.19889688	    -16.63967250	      0.00000000	      3.95204437	     -3.13542327	      2.91513130	      8.23138730	      0.14366481	     32.27513040	      3.99616835	      0.00000000	      0.30162756	      0.19708163	      0.27035945	      0.56015255	      0.26211857	      0.28725691	      0.49554392	      0.47918427	      0.28725691	      0.34473014	      0.47918427	      0.23656452	      0.28009136	      0.40188886	      0.21966705	      0.17234999	      0.30527944	      0.20276959	      2.15449552	      2.22942680	      1.50365814	      0.00000000	      0.00000000	     27.93671677	     -3.01184465	    -13.44589418	      8.89139838	    -11.22278279	     65.21697725	     43.05683331	     84.36936571	      0.34839206	      0.57238615	      7.88709808	     -7.02830477	     55.29702360	     46.39731725	     64.03280127	      1.63583736	     15.93248802
      0.07547170	      7.63899401	     -3.03198895	     92.34955698	      0.45303868	      0.78199471	      0.64968748	      0.20555241	      4.48929552	      7.84961914	      0.27496082	      0.00479897	     21.53804774	    -16.67218600	      0.00000000	      4.13847985	     -3.43881414	      3.88200629	      8.78663937	      0.15335579	     32.12554676	      3.11475500	      0.00000000	      0.28596456	      0.23743370	      0.18011195	      0.53106478	      0.31578682	      0.19136894	      0.46981117	      0.57729629	      0.19136894	      0.32682889	      0.57729629	      0.15759795	      0.26554669	      0.48417480	      0.14634096	      0.16340015	      0.36778480	      0.13508396	      2.04261624	      2.68589747	      1.00172862	      0.00000000	      0.00000000	     27.88717472	     -2.72504304	    -13.37662902	      8.97319543	    -11.23954937	     65.31797349	     42.98525726	     84.63012124	      0.18066588	      1.00250084	      7.69301571	     -6.91875561	     54.96932885	     46.42934128	     64.49282211	      1.57508944	     15.95589008
      0.09433962	      7.98327056	     -2.87247959	     92.51801685	      0.45250671	      0.78239378	      0.64897045	      0.18025964	      4.85822016	      6.76029034	      0.26060110	      0.00454835	     22.34142553	    -15.93500965	      0.00000000	      4.04929375	     -3.78655369	      4.12691408	      9.03893552	      0.15775919	     31.89965044	      2.62509793	      0.00000000	      0.25653136	      0.28212622	      0.16428514	      0.47640439	      0.37522788	      0.17455296	      0.42145537	      0.68596170	      0.17455296	      0.29318969	      0.68596170	      0.14374950	      0.23821502	      0.57531180	      0.13348168	      0.14658202	      0.43701352	      0.12321386	      1.83237784	      3.19146827	      0.91370467	      0.00000000	      0.00000000	     27.84233838	     -2.43604022	    -13.43150351	      9.06276199	    -11.28422140	     65.60719297	     42.83873398	     83.26365954	      0.46700737	      1.51961589	      7.64466755	     -6.82310222	     55.21073043	     46.36445684	     64.39772750	      1.43156402	     15.76853079
      0.11320755	      8.19977875	     -3.06083692	     92.63501451	      0.45223002	      0.78223906	      0.64807613	      0.46984542	      5.05440960	      5.81554838	      0.24684442	      0.00430825	     23.16903232	    -14.78063330	      0.00000000	      4.35551588	     -4.00898454	      4.23394878	      9.36611021	      0.16346946	     31.78359411	      2.35893671	      0.00000000	      0.29319349	      0.31046413	      0.16880162	      0.54448962	      0.41291729	      0.17935173	      0.48168758	      0.75486249	      0.17935173	      0.33509083	      0.75486249	      0.14770142	      0.27225947	      0.63309845	      0.13715132	      0.16753076	      0.48090894	      0.12660122	      2.09425175	      3.51203234	      0.93882399	      0.00000000	      0.00000000	     27.81479484	     -2.38205769	    -13.32507370	      9.01394806	    -11.28972928	     66.03731189	     42.71124321	     81.61301120	      0.75468906	      2.01911176	      7.42809147	     -6.80248560	     55.53657861	     46.29205938	     63.84680843	      1.27698811	     15.38810873
      0.13207547	      8.44873843	     -2.69378022	     93.20464989	      0.45092849	      0.78272508	      0.64732048	      0.13739964	      5.32533889	      4.81622022	      0.24081488	      0.00420301	     23.56981681	    -14.75384010	      0.00000000	      4.06246363	     -4.20422461	      5.09828904	      9.46114667	      0.16512816	     31.61806645	      1.73437394	      0.00000000	      0.23289009	      0.33793397	      0.11277819	      0.43250019	      0.44945218	      0.11982683	      0.38261513	      0.82165266	      0.11982683	      0.26617009	      0.82165266	      0.09868092	      0.21626174	      0.68911495	      0.09163228	      0.13307340	      0.52345972	      0.08458364	      1.66351064	      3.82277667	      0.62723847	      0.00000000	      0.00000000	     27.78215498	     -2.49428923	    -14.25274270	      9.34258289	    -11.38060317	     66.72193210	     42.49211332	     80.99665394	      1.82423373	      2.05328274	      7.45245911	     -6.62901558	     55.62322369	     46.22277630	     64.37860090	      0.99273466	     16.00607192
      0.15094340	      8.54218891	     -2.85445340	     93.47180465	      0.45004329	      0.78253016	      0.64629581	      0.28720266	      5.37137351	      5.33596141	      0.23799919	      0.00415387	     23.35138080	    -15.91299203	      0.00000000	      4.29222736	     -4.03468515	      7.79393653	      9.60652104	      0.16766542	     30.98167793	     -1.74523171	      0.00000000	      0.26078886	      0.34842217	      0.09118554	      0.48431100	      0.46340148	      0.09688464	      0.42845002	      0.84715366	      0.09688464	      0.29805559	      0.84715366	      0.07978735	      0.24216854	      0.71050249	      0.07408825	      0.14901476	      0.53970594	      0.06838916	      1.86278876	      3.94142125	      0.50714663	      0.00000000	      0.00000000	     27.79704432	     -2.43402390	    -14.58928438	      9.24501917	    -11.37825891	     66.87198781	     42.22135244	     82.12587703	      2.49881370	      1.23188942	      6.90932128	     -6.37440315	     54.52545480	     46.18715837	     66.14599313	      1.50009056	     16.57829204
